<svg width="35" height="54" viewBox="0 0 35 54" fill="none" xmlns="http://www.w3.org/2000/svg">
<path d="M4 18C4 20 6.4 24.8 10 26" stroke="#835D2F"/>
<g clip-path="url(#clip0_67_50018)">
<path d="M27.5233 29.234L29.9449 36.0263C30.3218 37.0834 30.4743 38.185 30.3914 39.2998C30.308 40.3794 30.0205 41.4256 29.5215 42.4174C29.0331 43.4055 28.3503 44.2859 27.5188 45.0188C26.6522 45.7878 25.6614 46.377 24.5533 46.772L17.6173 49.2449C16.5092 49.6399 15.3692 49.8104 14.2115 49.7631C13.1001 49.7111 12.0143 49.4612 11.0148 49.0154C10.0115 48.5592 9.11639 47.9346 8.36878 47.1513C7.98779 46.7563 7.6526 46.3214 7.36696 45.857C7.07758 45.3821 6.82336 44.8712 6.63306 44.3374L4.21146 37.5451C3.8346 36.488 3.68203 35.3864 3.76493 34.2716C3.84836 33.192 4.13585 32.1458 4.63486 31.154C5.12321 30.1659 5.80604 29.2855 6.63753 28.5526C7.50418 27.7836 8.49499 27.1944 9.60305 26.7994L16.5497 24.3227C17.6578 23.9277 18.7978 23.7572 19.9555 23.8045C20.4308 23.8238 20.8959 23.8821 21.3509 23.9794C21.9705 24.1006 22.5699 24.2998 23.1559 24.5627C24.0835 24.9751 24.9206 25.5378 25.6314 26.2517C25.6858 26.303 25.7401 26.3544 25.7838 26.4096C26.557 27.231 27.1464 28.1769 27.5233 29.234Z" fill="#D51A00"/>
<path d="M2.64985 34.2091C2.74178 32.9849 3.06654 31.8075 3.62785 30.6873C4.18917 29.567 4.94176 28.5792 5.89311 27.7445C6.86895 26.8776 8.00147 26.2143 9.24803 25.7699L16.184 23.2971C17.4306 22.8527 18.7273 22.6499 20.0352 22.7144C20.121 22.7192 20.2174 22.7202 20.3032 22.725C21.4721 22.8037 22.5941 23.0879 23.6512 23.5604C24.5538 23.9699 25.3796 24.5012 26.1001 25.1409C26.2919 25.3084 26.4624 25.4836 26.6366 25.6692L26.6404 25.6796C26.6947 25.731 26.7384 25.7862 26.7821 25.8414C26.9601 26.0375 27.1311 26.2478 27.2878 26.4515C27.7141 27.0072 28.0627 27.6143 28.3547 28.2652C28.4326 28.4498 28.5141 28.6448 28.5887 28.8541L31.0103 35.6465C31.4357 36.8396 31.6048 38.0887 31.5134 39.348C31.4215 40.5722 31.0967 41.7497 30.5354 42.8699C29.9741 43.9901 29.2215 44.978 28.2702 45.8126C27.2943 46.6795 26.1655 47.3533 24.919 47.7977L17.9829 50.2705C17.4396 50.4642 16.8813 50.6161 16.315 50.7118C15.998 50.7658 15.6879 50.8056 15.3635 50.8387C14.9533 50.867 14.55 50.881 14.1355 50.8636C14.0854 50.8579 14.0247 50.856 13.9746 50.8502C12.7738 50.7829 11.616 50.4997 10.5158 50.0072C9.53064 49.5681 8.6323 48.9683 7.86766 48.2382C7.75522 48.125 7.64279 48.0117 7.53036 47.8984C6.66286 46.9809 6.00363 45.9066 5.57827 44.7135L3.15667 37.9211C2.73131 36.728 2.56218 35.4789 2.64985 34.2091ZM9.21785 46.4003C9.8674 47.077 10.64 47.6273 11.5138 48.0236C12.3876 48.4198 13.3301 48.6382 14.2912 48.673C14.4233 48.6731 14.5592 48.6837 14.6875 48.6733C15.0088 48.6649 15.3263 48.6461 15.647 48.6025C15.9001 48.5713 16.1601 48.5258 16.4019 48.4631C16.6901 48.3958 16.9709 48.3075 17.2479 48.2087L24.1839 45.7359C25.1428 45.394 26.017 44.8819 26.7638 44.2145C27.493 43.5653 28.0741 42.8037 28.5038 41.9545C28.9299 41.0948 29.1838 40.1904 29.255 39.2449C29.3294 38.2747 29.1934 37.3205 28.8651 36.3995L26.4472 29.6176C26.2942 29.1885 26.1023 28.7851 25.8822 28.4035C25.765 28.2094 25.6334 28.0086 25.4948 27.8221C25.4255 27.7288 25.36 27.646 25.2945 27.5632C25.1852 27.4252 25.069 27.3015 24.9492 27.1673C24.8911 27.1054 24.8367 27.054 24.7824 27.0026C24.1696 26.3954 23.4551 25.9069 22.6569 25.5545C21.7831 25.1582 20.8406 24.9398 19.8795 24.905C19.6973 24.8992 19.5151 24.8934 19.3367 24.898C18.5157 24.9194 17.7075 25.0778 16.9191 25.3589L9.98309 27.8317C9.0242 28.1736 8.15004 28.6857 7.40324 29.3531C6.67402 30.0023 6.09293 30.7639 5.66316 31.6131C5.23712 32.4727 4.98316 33.3772 4.91195 34.3227C4.83755 35.2929 4.97358 36.2471 5.30194 37.1681L7.72353 43.9604C8.03377 44.8643 8.54271 45.6855 9.21785 46.4003C9.21411 46.3899 9.21411 46.3899 9.21785 46.4003Z" fill="#D51A00"/>
<path d="M19.3223 24.8914C19.5007 24.8867 19.683 24.8925 19.8652 24.8984C20.8406 24.9398 21.7725 25.162 22.6425 25.5478C23.4551 25.9069 24.1696 26.3954 24.7786 26.9921C25.4088 26.4018 25.837 25.6829 26.0894 25.1447C25.3653 24.4946 24.5538 23.9699 23.6405 23.5642C22.5835 23.0917 21.4614 22.8075 20.2925 22.7288C19.5948 23.5674 19.3904 24.4424 19.3223 24.8914Z" fill="#D51A00"/>
<g opacity="0.33">
<path d="M24.8888 26.4928C24.5654 26.5963 24.2458 26.7103 23.9262 26.8242C10.3882 31.6626 8.70062 41.3118 8.53877 44.7314C8.50429 45.5105 8.547 45.9671 8.547 45.9671C8.547 45.9671 8.44684 45.9556 8.2609 45.9393C7.8559 45.376 7.52494 44.7508 7.28987 44.0914L4.87201 37.3096C4.525 36.3362 4.39162 35.3221 4.46867 34.292C4.54626 33.2971 4.81352 32.3289 5.26034 31.4264C5.7178 30.5202 6.33032 29.712 7.10908 29.0333C7.90169 28.326 8.82538 27.7844 9.83755 27.4235L16.7736 24.9507C17.7857 24.5898 18.8438 24.425 19.905 24.4713C20.9306 24.5185 21.9231 24.7426 22.8508 25.1551C23.6095 25.498 24.2877 25.9521 24.8888 26.4928Z" fill="#D51A00"/>
</g>
<path d="M11.3306 28.6135C11.3306 28.6135 8.63603 29.409 7.18091 31.3905C5.7258 33.372 6.94315 33.3508 9.1415 31.6352C11.3399 29.9195 13.7342 27.9453 11.3306 28.6135Z" fill="#D51A00"/>
<path d="M13.4854 27.7862C14.2978 27.4376 15.2711 27.1024 15.5338 27.4688C15.7965 27.8352 14.233 28.3337 13.6129 28.4132C12.9784 28.486 13.0134 27.9781 13.4854 27.7862Z" fill="#D51A00"/>
<path d="M25.4948 27.8221C25.6334 28.0086 25.7613 28.1989 25.8822 28.4035C26.3232 27.8216 26.8798 27.0923 27.2947 26.4372C27.1381 26.2335 26.967 26.0232 26.789 25.8271C26.4476 26.3853 25.9422 27.1907 25.4948 27.8221Z" fill="#D51A00"/>
<path d="M26.8627 29.4695L29.2843 36.2618C29.6313 37.2352 29.7647 38.2493 29.6876 39.2794C29.6101 40.2743 29.3428 41.2425 28.896 42.145C28.4385 43.0512 27.826 43.8594 27.0472 44.5381C26.2546 45.2454 25.3309 45.787 24.3188 46.1479L17.3827 48.6207C16.3706 48.9816 15.3126 49.1464 14.2513 49.1001C13.2257 49.0529 12.2332 48.8288 11.3056 48.4163C10.378 48.0039 9.55846 47.4231 8.8796 46.6979C8.651 46.4609 8.45436 46.2125 8.26465 45.9498C7.85965 45.3864 7.52869 44.7613 7.29362 44.1019L4.87202 37.3096C4.52502 36.3362 4.39163 35.3221 4.46869 34.292C4.54628 33.2971 4.81354 32.3289 5.26036 31.4264C5.71782 30.5202 6.33034 29.712 7.1091 29.0333C7.9017 28.326 8.8254 27.7844 9.83757 27.4235L16.7736 24.9507C17.7858 24.5898 18.8438 24.425 19.905 24.4713C20.9306 24.5185 21.9232 24.7426 22.8508 25.1551C23.6095 25.498 24.2984 25.9483 24.8995 26.489C25.0263 26.6089 25.1568 26.7393 25.2874 26.8697C25.9881 27.6226 26.5157 28.4962 26.8627 29.4695ZM26.0317 29.7658C25.6063 28.5727 24.8661 27.5744 23.9262 26.8242C22.0863 25.3687 19.4933 24.8658 17.0428 25.7394L10.1068 28.2123C6.40968 29.5303 4.42751 33.4692 5.68868 37.0066L8.11028 43.799C8.22595 44.1234 8.36293 44.4403 8.52814 44.7352C10.1083 47.6517 13.7324 49.0256 17.0992 47.8253L24.0458 45.3487C27.7429 44.0306 29.7251 40.0918 28.4639 36.5543L26.0423 29.762L26.0317 29.7658Z" fill="#D51A00"/>
<path d="M7.41776 44.0459L29.0147 35.9097L24.97 24.5647L23.8757 21.6637L2.19398 29.3937L7.41776 44.0459Z" fill="#FEE581"/>
<path d="M7.44391 44.1191L29.0408 35.983L29.0147 35.9097L7.41779 44.0459L7.44391 44.1191Z" fill="#FEE581"/>
<path d="M7.4663 44.1819L29.0632 36.0458L29.0408 35.983L7.44391 44.1191L7.4663 44.1819Z" fill="#FEE581"/>
<path d="M7.48864 44.2447L29.0856 36.1086L29.0632 36.0458L7.46625 44.1819L7.48864 44.2447Z" fill="#FEE581"/>
<path d="M7.51104 44.3075L29.108 36.1714L29.0856 36.1086L7.48865 44.2447L7.51104 44.3075Z" fill="#FEE581"/>
<path d="M7.53717 44.3808L29.1341 36.2446L29.108 36.1714L7.51105 44.3075L7.53717 44.3808Z" fill="#FEE581"/>
<path d="M7.55956 44.4436L29.1565 36.3074L29.1341 36.2446L7.53717 44.3808L7.55956 44.4436Z" fill="#FEE580"/>
<path d="M7.58196 44.5064L29.1789 36.3702L29.1565 36.3074L7.55957 44.4436L7.58196 44.5064Z" fill="#FEE580"/>
<path d="M7.6043 44.5692L29.2012 36.433L29.1788 36.3702L7.58191 44.5064L7.6043 44.5692Z" fill="#FEE480"/>
<path d="M7.63043 44.6424L29.2274 36.5063L29.2012 36.433L7.60431 44.5692L7.63043 44.6424Z" fill="#FEE480"/>
<path d="M7.65282 44.7052L29.2497 36.5691L29.2274 36.5063L7.63043 44.6424L7.65282 44.7052Z" fill="#FEE47F"/>
<path d="M7.67522 44.768L29.2721 36.6318L29.2498 36.5691L7.65283 44.7052L7.67522 44.768Z" fill="#FEE47F"/>
<path d="M7.69762 44.8308L29.2945 36.6946L29.2722 36.6319L7.67523 44.768L7.69762 44.8308Z" fill="#FDE47F"/>
<path d="M7.72375 44.9041L29.3207 36.7679L29.2946 36.6946L7.69763 44.8308L7.72375 44.9041Z" fill="#FDE47E"/>
<path d="M7.74614 44.9669L29.3431 36.8307L29.3207 36.7679L7.72376 44.9041L7.74614 44.9669Z" fill="#FDE37E"/>
<path d="M7.76848 45.0297L29.3654 36.8935L29.343 36.8307L7.7461 44.9669L7.76848 45.0297Z" fill="#FDE37D"/>
<path d="M7.79088 45.0925L29.3878 36.9563L29.3654 36.8935L7.7685 45.0297L7.79088 45.0925Z" fill="#FDE37D"/>
<path d="M7.81701 45.1657L29.4139 37.0296L29.3878 36.9563L7.7909 45.0925L7.81701 45.1657Z" fill="#FDE37C"/>
<path d="M7.83941 45.2285L29.4363 37.0923L29.4139 37.0296L7.81702 45.1657L7.83941 45.2285Z" fill="#FDE27C"/>
<path d="M7.86181 45.2913L29.4587 37.1551L29.4363 37.0924L7.83942 45.2285L7.86181 45.2913Z" fill="#FDE27B"/>
<path d="M7.88414 45.3541L29.4811 37.2179L29.4587 37.1551L7.86176 45.2913L7.88414 45.3541Z" fill="#FDE27A"/>
<path d="M7.91028 45.4274L29.5072 37.2912L29.4811 37.2179L7.88416 45.3541L7.91028 45.4274Z" fill="#FDE27A"/>
<path d="M7.93267 45.4902L29.5296 37.354L29.5072 37.2912L7.91028 45.4274L7.93267 45.4902Z" fill="#FCE179"/>
<path d="M7.95507 45.553L29.552 37.4168L29.5296 37.354L7.93268 45.4902L7.95507 45.553Z" fill="#FCE179"/>
<path d="M7.97747 45.6157L29.5744 37.4796L29.552 37.4168L7.95508 45.553L7.97747 45.6157Z" fill="#FCE178"/>
<path d="M8.0036 45.689L29.6005 37.5528L29.5744 37.4796L7.97748 45.6157L8.0036 45.689Z" fill="#FCE077"/>
<path d="M8.02599 45.7518L29.6229 37.6156L29.6005 37.5528L8.0036 45.689L8.02599 45.7518Z" fill="#FCE076"/>
<path d="M8.04833 45.8146L29.6453 37.6784L29.6229 37.6156L8.02594 45.7518L8.04833 45.8146Z" fill="#FCE076"/>
<path d="M8.07073 45.8774L29.6677 37.7412L29.6453 37.6784L8.04834 45.8146L8.07073 45.8774Z" fill="#FBDF75"/>
<path d="M8.09686 45.9507L29.6938 37.8145L29.6677 37.7412L8.07074 45.8774L8.09686 45.9507Z" fill="#FBDF74"/>
<path d="M8.11925 46.0134L29.7162 37.8773L29.6938 37.8145L8.09687 45.9507L8.11925 46.0134Z" fill="#FBDF73"/>
<path d="M8.14165 46.0762L29.7386 37.9401L29.7162 37.8773L8.11926 46.0134L8.14165 46.0762Z" fill="#FBDE72"/>
<path d="M8.16399 46.139L29.7609 38.0029L29.7385 37.9401L8.1416 46.0762L8.16399 46.139Z" fill="#FBDE71"/>
<path d="M8.18639 46.2018L29.787 38.0761L29.7609 38.0029L8.164 46.139L8.18639 46.2018Z" fill="#FBDD70"/>
<path d="M8.21251 46.2751L29.8094 38.1389L29.787 38.0761L8.1864 46.2018L8.21251 46.2751Z" fill="#FADD70"/>
<path d="M8.23491 46.3379L29.8318 38.2017L29.8094 38.1389L8.21253 46.2751L8.23491 46.3379Z" fill="#FADC6F"/>
<path d="M8.25731 46.4007L29.8542 38.2645L29.8318 38.2017L8.23493 46.3379L8.25731 46.4007Z" fill="#FADC6E"/>
<path d="M8.27971 46.4635L29.8804 38.3378L29.8542 38.2645L8.25733 46.4007L8.27971 46.4635Z" fill="#FADB6D"/>
<path d="M8.30578 46.5367L29.9027 38.4006L29.8803 38.3378L8.27966 46.4635L8.30578 46.5367Z" fill="#FADB6C"/>
<path d="M8.32818 46.5995L29.9251 38.4634L29.9027 38.4006L8.30579 46.5367L8.32818 46.5995Z" fill="#F9DB6B"/>
<path d="M8.35058 46.6623L29.9475 38.5262L29.9251 38.4634L8.32819 46.5995L8.35058 46.6623Z" fill="#F9DA6A"/>
<path d="M8.37298 46.7251L29.9736 38.5994L29.9475 38.5262L8.35059 46.6623L8.37298 46.7251Z" fill="#F9DA68"/>
<path d="M8.3991 46.7984L29.996 38.6622L29.9736 38.5994L8.37298 46.7251L8.3991 46.7984Z" fill="#F9D967"/>
<path d="M8.4215 46.8612L30.0184 38.725L29.996 38.6622L8.39911 46.7984L8.4215 46.8612Z" fill="#F8D866"/>
<path d="M8.44384 46.924L30.0408 38.7878L30.0184 38.725L8.42145 46.8612L8.44384 46.924Z" fill="#F8D865"/>
<path d="M8.46624 46.9868L30.0669 38.8611L30.0408 38.7878L8.44385 46.924L8.46624 46.9868Z" fill="#F8D764"/>
<path d="M8.49236 47.06L30.0893 38.9239L30.0669 38.8611L8.46624 46.9868L8.49236 47.06Z" fill="#F8D763"/>
<path d="M8.51476 47.1228L30.1117 38.9867L30.0893 38.9239L8.49237 47.06L8.51476 47.1228Z" fill="#F7D661"/>
<path d="M8.53716 47.1856L30.1341 39.0495L30.1117 38.9867L8.51477 47.1228L8.53716 47.1856Z" fill="#F7D660"/>
<path d="M8.55956 47.2484L30.1602 39.1227L30.1341 39.0495L8.53717 47.1856L8.55956 47.2484Z" fill="#F7D55F"/>
<path d="M8.58562 47.3217L30.1825 39.1855L30.1602 39.1227L8.5595 47.2484L8.58562 47.3217Z" fill="#F7D55E"/>
<path d="M8.60802 47.3845L30.2049 39.2483L30.1826 39.1855L8.58563 47.3217L8.60802 47.3845Z" fill="#F6D45C"/>
<path d="M8.63042 47.4473L30.2273 39.3111L30.205 39.2483L8.60803 47.3845L8.63042 47.4473Z" fill="#F6D35B"/>
<path d="M8.6379 47.4682L8.66348 47.5063L30.2497 39.3739L30.2274 39.3111L8.63043 47.4473L8.6379 47.4682Z" fill="#F6D35A"/>
<path d="M8.66349 47.5063L8.68961 47.5795L30.2759 39.4472L30.2498 39.3739L8.66349 47.5063Z" fill="#F6D258"/>
<path d="M8.68961 47.5795L8.712 47.6423L30.2983 39.51L30.2759 39.4472L8.68961 47.5795Z" fill="#F5D157"/>
<path d="M8.71195 47.6423L8.73434 47.7051L30.3206 39.5728L30.2982 39.51L8.71195 47.6423Z" fill="#F5D156"/>
<path d="M8.73435 47.7051L8.75674 47.7679L30.343 39.6356L30.3206 39.5728L8.73435 47.7051Z" fill="#F5D054"/>
<path d="M8.75675 47.7679L8.78287 47.8412L30.3691 39.7088L30.343 39.6356L8.75675 47.7679Z" fill="#F4CF53"/>
<path d="M8.78287 47.8412L8.80526 47.904L30.3915 39.7716L30.3691 39.7088L8.78287 47.8412Z" fill="#F4CF51"/>
<path d="M8.80527 47.904L8.82766 47.9668L30.4139 39.8344L30.3915 39.7716L8.80527 47.904Z" fill="#F4CE50"/>
<path d="M8.82767 47.9668L8.85006 48.0296L30.4363 39.8972L30.4139 39.8344L8.82767 47.9668Z" fill="#F3CD4E"/>
<path d="M8.85001 48.0296L8.88679 48.099L30.4624 39.9705L30.4363 39.8972L8.85001 48.0296Z" fill="#F3CD4D"/>
<path d="M8.88679 48.099L8.90918 48.1618L30.4848 40.0333L30.4624 39.9705L8.88679 48.099Z" fill="#F3CC4B"/>
<path d="M8.90919 48.1618L8.93157 48.2246L30.5072 40.0961L30.4848 40.0333L8.90919 48.1618Z" fill="#F3CB4A"/>
<path d="M8.93159 48.2246L8.95398 48.2874L30.5296 40.1588L30.5072 40.0961L8.93159 48.2246Z" fill="#F2CA48"/>
<path d="M8.95399 48.2874L8.98011 48.3607L30.5557 40.2321L30.5296 40.1588L8.95399 48.2874Z" fill="#F2CA47"/>
<path d="M8.98011 48.3607L9.0025 48.4235L30.5781 40.2949L30.5557 40.2321L8.98011 48.3607Z" fill="#F2C945"/>
<path d="M9.00245 48.4235L9.02484 48.4863L30.6005 40.3577L30.5781 40.2949L9.00245 48.4235Z" fill="#F1C843"/>
<path d="M9.02485 48.4863L9.04724 48.5491L30.6229 40.4205L30.6005 40.3577L9.02485 48.4863Z" fill="#F1C742"/>
<path d="M9.04725 48.5491L9.07337 48.6223L30.649 40.4938L30.6229 40.4205L9.04725 48.5491Z" fill="#F1C740"/>
<path d="M9.07337 48.6223L9.10641 48.6813L30.6714 40.5566L30.649 40.4938L9.07337 48.6223Z" fill="#F0C63E"/>
<path d="M9.10643 48.6813L9.12881 48.7441L30.6938 40.6193L30.6714 40.5566L9.10643 48.6813Z" fill="#F0C53D"/>
<path d="M9.12883 48.7441L9.15121 48.8069L30.7162 40.6821L30.6938 40.6193L9.12883 48.7441Z" fill="#EFC43B"/>
<path d="M9.15116 48.8069L9.17728 48.8802L30.7422 40.7554L30.7161 40.6821L9.15116 48.8069Z" fill="#EFC339"/>
<path d="M9.17729 48.8802L9.19968 48.943L30.7646 40.8182L30.7422 40.7554L9.17729 48.8802Z" fill="#EFC338"/>
<path d="M9.19969 48.943L9.22207 49.0058L30.787 40.881L30.7646 40.8182L9.19969 48.943Z" fill="#EEC236"/>
<path d="M9.22209 49.0058L9.24448 49.0686L30.8094 40.9438L30.787 40.881L9.22209 49.0058Z" fill="#EEC134"/>
<path d="M9.24449 49.0686L9.92196 50.8678L31.593 43.1416L30.8094 40.9438L9.24449 49.0686Z" fill="#EEC134"/>
<path d="M3.38122 33.7006C3.45985 32.5402 3.75318 31.4093 4.27615 30.35C4.78846 29.2944 5.49525 28.3464 6.36509 27.5527C7.27382 26.7333 8.32109 26.1004 9.48242 25.6863L15.9496 23.3807C17.111 22.9666 18.3187 22.7838 19.5446 22.8539C19.6304 22.8588 19.7161 22.8636 19.7913 22.8722C20.8781 22.9565 21.9394 23.2387 22.932 23.6988C23.7808 24.0922 24.5528 24.6073 25.2301 25.2269C25.4075 25.3878 25.5743 25.5525 25.7342 25.7314L25.7379 25.7419C25.7816 25.797 25.8322 25.838 25.8759 25.8932C26.0395 26.0826 26.2068 26.2824 26.3491 26.4794C26.7466 27.0219 27.084 27.5976 27.3542 28.2208C27.4533 28.3978 27.5349 28.5928 27.602 28.7812L29.9192 35.2805C30.3259 36.4213 30.4977 37.6105 30.4126 38.8204C30.334 39.9808 30.0407 41.1117 29.5177 42.1711C29.0054 43.2266 28.2986 44.1746 27.4288 44.9683C26.52 45.7877 25.4728 46.4206 24.3114 46.8347L17.8442 49.1404C17.3328 49.3227 16.8171 49.4593 16.2865 49.5541C15.9908 49.6006 15.6952 49.647 15.399 49.6582C15.0138 49.6894 14.6318 49.6958 14.2493 49.6671C14.1992 49.6613 14.1491 49.6556 14.1028 49.6603C12.984 49.5873 11.887 49.3061 10.8656 48.8327C9.93052 48.3993 9.1041 47.8328 8.37196 47.1265C8.26326 47.0238 8.15083 46.9105 8.05278 46.8039C7.23217 45.9168 6.60226 44.891 6.19555 43.7502L3.87469 37.2405C3.46798 36.0997 3.29621 34.9105 3.38122 33.7006ZM9.61295 45.3865C10.2194 46.0433 10.9488 46.5735 11.7688 46.9536C12.5888 47.3336 13.4705 47.5501 14.3746 47.5934C14.4961 47.5973 14.6176 47.6012 14.739 47.6051C15.039 47.6043 15.3314 47.5826 15.6308 47.5466C15.8732 47.5192 16.1082 47.4708 16.3431 47.4225C16.61 47.3627 16.8695 47.282 17.1358 47.187L23.6137 44.8775C24.5087 44.5585 25.3226 44.0795 26.0092 43.4455C26.682 42.84 27.2279 42.1145 27.6225 41.3014C28.0172 40.4884 28.2466 39.6162 28.3008 38.724C28.3544 37.7966 28.2333 36.8842 27.9199 36.0051L25.599 29.4953C25.4535 29.0872 25.2654 28.6942 25.0527 28.3336C24.9355 28.1394 24.822 27.9558 24.6871 27.7797C24.6216 27.6969 24.5667 27.6103 24.4905 27.5313C24.385 27.4038 24.2795 27.2763 24.1633 27.1525C24.109 27.1011 24.0653 27.0459 24.0072 26.9841C23.4482 26.393 22.7769 25.9246 22.0182 25.5817C21.1982 25.2017 20.3164 24.9852 19.4123 24.9418C19.2408 24.9322 19.073 24.9331 18.9051 24.9339C18.1412 24.9468 17.3863 25.0861 16.6511 25.3482L10.1839 27.6539C9.28894 27.973 8.47498 28.4519 7.78837 29.086C7.11562 29.6915 6.56968 30.417 6.17506 31.2301C5.78044 32.0431 5.55099 32.9153 5.49682 33.8075C5.44318 34.7349 5.56429 35.6472 5.87772 36.5264L8.19484 43.0257C8.49762 43.9086 8.98471 44.7022 9.61295 45.3865Z" fill="#F2D847"/>
<path d="M18.9014 24.9235C19.0692 24.9226 19.237 24.9218 19.4086 24.9314C20.3164 24.9852 21.1944 25.1912 22.0182 25.5817C22.7662 25.9284 23.4413 26.4073 24.0179 26.9803C24.6091 26.4156 25.0021 25.7328 25.2301 25.2269C24.5528 24.6073 23.7808 24.0922 22.932 23.6988C21.9394 23.2387 20.8818 22.967 19.7913 22.8722C19.1393 23.6708 18.9519 24.4926 18.9014 24.9235Z" fill="#FFEFA1"/>
<g opacity="0.33">
<path d="M24.1248 26.5057C23.8228 26.6016 23.5245 26.7079 23.2261 26.8143C10.6044 31.326 9.09205 40.5235 8.97066 43.7871C8.93564 44.531 8.98527 44.9733 8.98527 44.9733C8.98527 44.9733 8.88511 44.9618 8.72422 44.9484C8.33733 44.4022 8.02822 43.8046 7.80061 43.1662L5.48349 36.6669C5.15141 35.7354 5.01164 34.7708 5.07858 33.7797C5.13541 32.8275 5.38563 31.9126 5.79728 31.0462C6.21959 30.1761 6.79003 29.4183 7.5086 28.7729C8.24474 28.1093 9.10451 27.5905 10.0528 27.2524L16.5093 24.9505C17.4576 24.6125 18.4373 24.4637 19.4415 24.5185C20.4064 24.5638 21.3313 24.8003 22.2051 25.1966C22.9174 25.5442 23.5526 25.9783 24.1248 26.5057Z" fill="white"/>
</g>
<path d="M11.4525 28.4166C11.4525 28.4166 8.94286 29.158 7.59321 31.0311C6.24356 32.9043 7.3826 32.8993 9.43606 31.2824C11.4789 29.6694 13.6964 27.8054 11.4525 28.4166Z" fill="white"/>
<path d="M13.4582 27.6426C14.2173 27.313 15.116 27.0044 15.375 27.3603C15.6234 27.72 14.1664 28.1805 13.5782 28.2486C12.9901 28.3167 13.0219 27.8335 13.4582 27.6426Z" fill="white"/>
<path d="M24.6978 27.7759C24.8326 27.952 24.9499 28.1461 25.0634 28.3298C25.4836 27.7907 25.9907 27.0909 26.3704 26.4718C26.2137 26.2682 26.0608 26.075 25.8972 25.8856C25.5803 26.4114 25.11 27.1807 24.6978 27.7759Z" fill="#FFEFA1"/>
<path d="M25.9932 29.3548L28.3103 35.8541C28.6424 36.7856 28.7822 37.7502 28.7153 38.7414C28.6584 39.6935 28.4082 40.6084 27.9966 41.4748C27.5742 42.3449 27.0038 43.1027 26.2852 43.7481C25.5491 44.4117 24.6893 44.9305 23.7411 45.2686L17.2739 47.5743C16.3256 47.9123 15.3459 48.0611 14.3417 48.0063C13.3768 47.961 12.4519 47.7245 11.5781 47.3283C10.7006 46.9215 9.93865 46.3675 9.29228 45.666C9.07807 45.4357 8.88516 45.1978 8.71357 44.9522C8.32669 44.406 8.01758 43.8084 7.78997 43.17L5.47284 36.6707C5.14076 35.7392 5.001 34.7746 5.06794 33.7834C5.12476 32.8313 5.37498 31.9164 5.78664 31.05C6.20895 30.1799 6.77939 29.4221 7.49795 28.7767C8.2341 28.1131 9.09387 27.5943 10.0421 27.2562L16.5093 24.9505C17.4576 24.6125 18.4373 24.4637 19.4415 24.5185C20.4064 24.5638 21.3313 24.8003 22.2051 25.1966C22.9244 25.5299 23.5595 25.9641 24.1318 26.4914C24.2586 26.6113 24.3747 26.7351 24.4909 26.8588C25.1591 27.5879 25.6611 28.4233 25.9932 29.3548ZM25.2154 29.6321C24.8087 28.4913 24.1048 27.5273 23.2261 26.8143C21.4976 25.4016 19.0655 24.9121 16.7854 25.725L10.3182 28.0307C6.8662 29.2614 5.05607 33.0091 6.26127 36.3896L8.57839 42.8889C8.69033 43.2029 8.81985 43.4988 8.98133 43.7833C10.481 46.5752 13.8904 47.9194 17.0228 46.8027L23.4794 44.5008C26.9314 43.2701 28.7415 39.5223 27.5363 36.1419L25.2154 29.6321Z" fill="#D51A00"/>
<path d="M11.5512 31.8259C11.2529 31.9323 11.0063 32.15 10.8609 32.4495L10.0232 34.1755C9.87779 34.4751 9.86506 34.8099 9.96581 35.0925L9.96954 35.1029C9.97489 35.219 9.99462 35.3417 10.0357 35.4568C10.1401 35.7499 10.3581 35.9907 10.6602 36.1307L13.9401 37.6508L12.3963 40.8318C12.2509 41.1314 12.2419 41.4766 12.3464 41.7697C12.3672 42.1987 12.6198 42.6041 13.037 42.7974L14.7777 43.6042C15.0798 43.7442 15.4191 43.753 15.7068 43.6504C16.0051 43.5441 16.2518 43.3264 16.3971 43.0268L18.0725 39.5749L21.5539 41.1884C21.856 41.3284 22.1953 41.3371 22.483 41.2346C22.7813 41.1282 23.028 40.9105 23.1733 40.611L24.011 38.885C24.1564 38.5854 24.1654 38.2402 24.0609 37.9471C24.0401 37.5181 23.7875 37.1127 23.3703 36.9194L20.0904 35.3992L21.6486 32.2249C21.794 31.9254 21.803 31.5801 21.6985 31.287C21.6776 30.858 21.425 30.4526 21.0079 30.2593L19.2672 29.4525C18.9651 29.3125 18.6257 29.3037 18.3381 29.4063C18.0504 29.5088 17.7931 29.7303 17.6477 30.0299L15.9723 33.4819L12.491 31.8684C12.1782 31.7321 11.8389 31.7234 11.5512 31.8259ZM11.1146 30.6014C11.7539 30.3735 12.447 30.3977 13.055 30.6882L15.3423 31.7483L16.4431 29.4803C16.7338 28.8812 17.2516 28.4135 17.8908 28.1856C18.5301 27.9577 19.227 27.9923 19.8312 28.2724L21.5718 29.0791C22.363 29.4458 22.8885 30.1786 22.9978 31.0243C23.1567 31.6047 23.1126 32.222 22.8426 32.7783L21.8734 34.7753L23.9593 35.7421C24.7505 36.1088 25.276 36.8416 25.3853 37.6873C25.5442 38.2676 25.5001 38.8849 25.2301 39.4413L24.3924 41.1672C24.0947 41.7806 23.5839 42.234 22.9446 42.462C22.3053 42.6899 21.6122 42.6657 21.0043 42.3752L18.717 41.3151L17.6162 43.5831C17.3185 44.1965 16.8077 44.6499 16.1684 44.8778C15.5291 45.1057 14.836 45.0815 14.2281 44.791L12.4874 43.9843C11.6962 43.6175 11.1708 42.8848 11.0614 42.0391C10.9025 41.4587 10.9466 40.8414 11.2166 40.2851L12.1859 38.2881L10.1 37.3213C9.48137 37.0346 9.02736 36.5359 8.80349 35.9079C8.74379 35.7405 8.7054 35.5654 8.67766 35.3866C8.51879 34.8062 8.56289 34.1889 8.83289 33.6326L9.67059 31.9066C9.95763 31.297 10.4754 30.8293 11.1146 30.6014Z" fill="white"/>
<path d="M23.4546 37.2904L12.5646 32.2432C11.9604 31.9632 11.2359 32.2215 10.9452 32.8206L10.1075 34.5465C9.96207 34.8461 9.94935 35.1809 10.0501 35.4635C10.1546 35.7565 10.3725 35.9973 10.6746 36.1374L21.5646 41.1846C22.1688 41.4646 22.8933 41.2063 23.184 40.6072L24.0217 38.8812C24.3125 38.2821 24.0588 37.5704 23.4546 37.2904Z" fill="#A86700"/>
<path d="M16.3972 43.0268L21.6486 32.2249C21.9394 31.6258 21.6857 30.9141 21.0815 30.6341L19.3264 29.8207C19.0243 29.6807 18.685 29.6719 18.3973 29.7745C18.099 29.8808 17.8523 30.0985 17.707 30.398L12.4661 41.1962C12.1754 41.7953 12.4291 42.5069 13.0333 42.787L14.774 43.5937C15.3819 43.8842 16.1064 43.6259 16.3972 43.0268Z" fill="#A86700"/>
<path d="M23.3703 36.9194L12.4803 31.8722C11.8761 31.5921 11.1516 31.8504 10.8609 32.4495L10.0232 34.1755C9.87778 34.4751 9.86506 34.8099 9.9658 35.0925C10.0703 35.3855 10.2882 35.6263 10.5903 35.7663L21.4803 40.8135C22.0845 41.0936 22.809 40.8353 23.0997 40.2362L23.9374 38.5102C24.2319 37.9215 23.9745 37.1994 23.3703 36.9194Z" fill="#D51A00"/>
<path d="M16.3273 42.6625L21.5681 31.8643C21.8589 31.2652 21.6052 30.5536 21.001 30.2735L19.2603 29.4668C18.9582 29.3268 18.6188 29.318 18.3312 29.4206C18.0435 29.5231 17.7862 29.7446 17.6408 30.0441L12.4 40.8423C12.1092 41.4414 12.363 42.153 12.9672 42.4331L14.7078 43.2398C15.312 43.5199 16.0365 43.2616 16.3273 42.6625Z" fill="#D51A00"/>
<ellipse cx="16.58" cy="26.9967" rx="1.5" ry="0.5" transform="rotate(20.6426 16.58 26.9967)" fill="#835D2F"/>
</g>
<path d="M7.5 1C7.5 -2.5 20.5 22 16 27" stroke="url(#paint0_linear_67_50018)"/>
<defs>
<linearGradient id="paint0_linear_67_50018" x1="11.3181" y1="1" x2="11.3181" y2="26.5" gradientUnits="userSpaceOnUse">
<stop stop-color="#B18045"/>
<stop offset="1" stop-color="#845E30"/>
</linearGradient>
<clipPath id="clip0_67_50018">
<rect width="27" height="26" fill="white" transform="matrix(-0.941928 0.335815 0.335815 0.941928 25.4321 20)"/>
</clipPath>
</defs>
</svg>
